Coordinates
version=1
nRows=17
nColumns=40
inDegrees=yes

Units are S.I. units (second, meters, Newtons, ...)
Angles are in degrees.

endheader
time	pelvis_tilt	pelvis_list	pelvis_rotation	pelvis_tx	pelvis_ty	pelvis_tz	hip_flexion_r	hip_adduction_r	hip_rotation_r	knee_angle_r	knee_angle_r_beta	ankle_angle_r	subtalar_angle_r	mtp_angle_r	hip_flexion_l	hip_adduction_l	hip_rotation_l	knee_angle_l	knee_angle_l_beta	ankle_angle_l	subtalar_angle_l	mtp_angle_l	lumbar_extension	lumbar_bending	lumbar_rotation	arm_flex_r	arm_add_r	arm_rot_r	elbow_flex_r	pro_sup_r	wrist_flex_r	wrist_dev_r	arm_flex_l	arm_add_l	arm_rot_l	elbow_flex_l	pro_sup_l	wrist_flex_l	wrist_dev_l
     22.89250000	     -3.30615265	     -6.31234811	     -1.25281560	      1.06151299	      0.93474035	      0.40869264	     30.82453544	     -4.71657270	     -5.17051777	     58.09455467	     58.09455467	     -2.15273266	    -12.47463845	     -2.05696828	     13.04959820	     -7.63019774	     -8.17037402	     22.75010924	     22.75010924	     14.48326346	    -11.49212665	      1.55482143	    -11.91966405	      5.33334850	      1.57151286	      4.40757522	    -13.21773380	     -9.91344875	     28.43660112	     46.77240709	      0.00000000	      0.00000000	     18.72848564	    -18.15327108	      3.24386572	     44.60789816	     45.69446036	      0.00000000	      0.00000000
     22.90585714	     -3.55511671	     -6.45009823	     -1.60596229	      1.06026258	      0.93505397	      0.40885785	     31.08436464	     -4.39325586	     -5.35937964	     54.99530472	     54.99530472	     -1.54966969	    -11.90280115	     -2.00683507	     12.67476736	     -7.77113560	     -8.44699380	     22.22774910	     22.22774910	     14.59000675	    -11.44389695	      1.58045660	    -11.81589155	      5.51525709	      1.52211299	      3.91881127	    -13.24035503	    -10.01631619	     28.16570779	     46.78477820	      0.00000000	      0.00000000	     19.39308768	    -18.34073771	      3.11389994	     45.13456371	     45.72445926	      0.00000000	      0.00000000
     22.91921429	     -3.64405046	     -6.52135598	     -1.98746733	      1.05912586	      0.93547414	      0.40910598	     30.91186359	     -4.09282138	     -5.55699638	     51.29735055	     51.29735055	     -1.53676783	    -11.52574039	     -3.89483573	     12.05342509	     -7.84724160	     -8.84342420	     21.59251764	     21.59251764	     14.44025750	    -11.40523557	      0.93468308	    -11.95487888	      5.57392165	      1.47197942	      3.82963497	    -13.06288953	    -11.76834112	     27.45316529	     46.90341450	      0.00000000	      0.00000000	     19.50201249	    -18.56986098	      2.42232766	     47.18392945	     45.89480139	      0.00000000	      0.00000000
     22.93257143	     -3.98340033	     -6.63122270	     -2.36820163	      1.05776468	      0.93541252	      0.40951124	     30.93214841	     -3.72708487	     -5.86928782	     47.38950234	     47.38950234	     -0.87396948	    -10.62858285	     -3.73381438	     11.85227767	     -7.98363705	     -9.13348545	     21.20010526	     21.20010526	     14.53081559	    -11.41866812	      0.94399909	    -11.78549336	      5.71795376	      1.55875446	      3.47551569	    -13.11328576	    -11.83515782	     27.23078391	     46.91204902	      0.00000000	      0.00000000	     20.13130045	    -18.67086344	      2.29582702	     47.71781888	     45.92378384	      0.00000000	      0.00000000
     22.94592857	     -4.29033340	     -6.71251383	     -2.75222933	      1.05641930	      0.93526074	      0.41004212	     30.73623991	     -3.33034826	     -6.19692929	     43.12027167	     43.12027167	     -0.18269381	     -9.46222133	     -3.62731465	     11.61426341	     -8.09790859	     -9.42506624	     20.81865660	     20.81865660	     14.63595610	    -11.39456019	      0.89611093	    -11.68784993	      5.85620098	      1.72152819	      3.18189140	    -13.15460867	    -11.91726194	     27.05235868	     46.92076895	      0.00000000	      0.00000000	     20.71550276	    -18.71865908	      2.13557677	     48.43283749	     45.95660724	      0.00000000	      0.00000000
     22.95928571	     -4.56818256	     -6.76776184	     -3.13847993	      1.05519074	      0.93502569	      0.41070831	     30.29947205	     -2.92773703	     -6.66662439	     38.50637318	     38.50637318	      0.45758149	     -7.97491247	     -3.54004209	     11.35777584	     -8.20360682	     -9.76677007	     20.48538321	     20.48538321	     14.76203627	    -11.36325875	      0.77873721	    -11.61507827	      5.93514066	      1.94014134	      2.93641327	    -13.22514978	    -12.03451832	     26.92181532	     46.93038618	      0.00000000	      0.00000000	     21.21307755	    -18.70459198	      1.92710247	     49.34995140	     45.99532760	      0.00000000	      0.00000000
     22.97264286	     -4.74851852	     -6.72084265	     -3.51033466	      1.05416158	      0.93467945	      0.41142154	     29.51370211	     -2.62138684	     -7.30159838	     33.51219706	     33.51219706	      0.44862889	     -6.11469695	     -5.34888281	     10.98119718	     -8.22264770	    -10.24860990	     20.13968529	     20.13968529	     14.69252426	    -11.20608504	     -0.03945610	    -11.71743357	      5.88754438	      1.75380194	      3.06217249	    -13.08594258	    -13.19661293	     26.89353997	     46.98507745	      0.00000000	      0.00000000	     20.55608097	    -18.88956972	      0.36916992	     52.67092001	     46.21926132	      0.00000000	      0.00000000
     22.98600000	     -5.10289117	     -6.72902882	     -3.85375897	      1.05310947	      0.93400950	      0.41234532	     28.83139780	     -2.08837152	     -7.76279726	     28.55753576	     28.55753576	      0.90451684	     -4.19190609	     -4.68708547	     10.88941776	     -8.29867517	    -10.47712533	     19.96049980	     19.96049980	     14.85410344	    -11.25495657	     -0.15565860	    -11.51608213	      5.96298730	      1.89570582	      2.96026186	    -13.11887582	    -13.24876855	     26.80614418	     46.98825505	      0.00000000	      0.00000000	     20.98461321	    -18.83762944	      0.25276679	     53.24108073	     46.24539960	      0.00000000	      0.00000000
     22.99935714	     -5.28540796	     -6.66253215	     -4.13714393	      1.05237592	      0.93338553	      0.41331185	     27.84219131	     -1.65685964	     -8.47372413	     23.67942848	     23.67942848	      1.31052311	     -1.69744008	     -3.75009757	     10.61962829	     -8.30288253	    -10.80479026	     19.82932237	     19.82932237	     15.05396466	    -11.18941581	     -0.36883530	    -11.46437128	      5.93173393	      2.12854885	      2.89360872	    -13.18779908	    -13.34010464	     26.80612572	     46.98998028	      0.00000000	      0.00000000	     21.32810664	    -18.74365500	      0.04474947	     54.13189634	     46.28347136	      0.00000000	      0.00000000
     23.01271429	     -5.45961756	     -6.48708307	     -4.41121131	      1.05183478	      0.93253234	      0.41434699	     27.05820482	     -1.42041849	     -9.50733775	     19.66369593	     19.66369593	      2.65595778	      1.74753897	      0.04650563	     10.33739911	     -8.21662314	    -11.24529480	     19.70291603	     19.70291603	     15.19649062	    -10.96371183	     -0.97769877	    -11.45764389	      5.77242777	      1.88973702	      3.03460701	    -13.06033994	    -13.84436186	     27.20655253	     46.97381818	      0.00000000	      0.00000000	     20.73687834	    -18.82579786	     -1.16560250	     56.64593309	     46.45602148	      0.00000000	      0.00000000
     23.02607143	     -5.61877236	     -6.31550595	     -4.62369317	      1.05154900	      0.93160699	      0.41556462	     26.19726878	     -1.08171445	    -10.36031200	     15.94122523	     15.94122523	      3.14540673	      4.29780740	      2.33304758	     10.04941926	     -8.12790217	    -11.56115990	     19.61238918	     19.61238918	     15.44239838	    -10.79654437	     -1.24489528	    -11.35338840	      5.63951822	      2.04365322	      3.06601257	    -13.04676828	    -13.87351119	     27.23355948	     46.95561748	      0.00000000	      0.00000000	     20.92198146	    -18.68079133	     -1.40525048	     57.47340931	     46.51024772	      0.00000000	      0.00000000
     23.03942857	     -5.73721619	     -6.19250027	     -4.77000750	      1.05151635	      0.93061601	      0.41694331	     25.34348046	     -0.64213455	    -10.91400221	     12.81454604	     12.81454604	      3.09163730	      5.81536470	      3.70178695	      9.76514769	     -8.08244414	    -11.69007266	     19.62157783	     19.62157783	     15.74591212	    -10.81105489	     -1.43332903	    -11.20348824	      5.53923414	      2.11934344	      3.12647558	    -13.07889922	    -13.87679539	     27.36756791	     46.94422265	      0.00000000	      0.00000000	     21.07733065	    -18.52914942	     -1.46164591	     58.02598861	     46.52928914	      0.00000000	      0.00000000
     23.05278571	     -5.82183325	     -5.98152682	     -4.87729276	      1.05171554	      0.92964805	      0.41829774	     24.67366683	     -0.39729618	    -11.56363687	     10.67577383	     10.67577383	      3.07928791	      7.11556337	      4.99535391	      9.42611889	     -7.94111822	    -11.89756247	     19.60074815	     19.60074815	     16.03925492	    -10.70919836	     -1.61855807	    -11.05501197	      5.43997243	      2.19403722	      3.21526228	    -13.06628521	    -13.87536331	     27.57898148	     46.92923493	      0.00000000	      0.00000000	     21.13973188	    -18.36698797	     -1.53772827	     58.66397505	     46.55173865	      0.00000000	      0.00000000
     23.06614286	     -5.84875100	     -5.84843310	     -4.92911241	      1.05214283	      0.92878446	      0.41977688	     24.08028969	     -0.16100291	    -12.26504336	      9.41049143	      9.41049143	      3.13146343	      7.98988463	      6.18822459	      9.00627502	     -7.89092370	    -12.09123062	     19.57195467	     19.57195467	     16.38779831	    -10.49501282	     -1.78087456	    -10.93906948	      5.37612035	      2.21013104	      3.34622767	    -13.07035921	    -13.85379167	     27.97637033	     46.90159507	      0.00000000	      0.00000000	     21.01625308	    -18.20461465	     -1.66155050	     59.43340265	     46.58103325	      0.00000000	      0.00000000
     23.07950000	     -5.91451681	     -5.72610739	     -4.94066975	      1.05278076	      0.92789366	      0.42135510	     23.61662527	      0.03720493	    -12.72398850	      8.81908112	      8.81908112	      2.89865620	      8.04219036	      6.52103350	      8.62650910	     -7.84842230	    -12.17139507	     19.54331996	     19.54331996	     16.71544375	    -10.38244427	     -1.84218743	    -10.70505241	      5.32957008	      2.19769120	      3.49499533	    -13.07677089	    -13.81124510	     28.28193534	     46.87981380	      0.00000000	      0.00000000	     20.87827574	    -18.00158964	     -1.70455118	     59.87548160	     46.59596553	      0.00000000	      0.00000000
     23.09285714	     -6.01375682	     -5.56603316	     -4.93136781	      1.05358690	      0.92694934	      0.42301219	     23.31595672	      0.11198010	    -13.13668428	      8.90120693	      8.90120693	      2.72878706	      7.75822705	      6.55307156	      8.31056702	     -7.76071730	    -12.20184030	     19.56632957	     19.56632957	     16.98896017	    -10.44484994	     -1.92635972	    -10.38593845	      5.30568396	      2.25921266	      3.67367619	    -13.08507003	    -13.80263983	     28.37380145	     46.87632797	      0.00000000	      0.00000000	     20.82847337	    -17.86922440	     -1.67051084	     59.91888733	     46.59395326	      0.00000000	      0.00000000
     23.10621429	     -5.82946588	     -5.51465039	     -4.77199159	      1.05487177	      0.92629174	      0.42467198	     22.56253251	      0.28289013	    -13.07528176	      8.97917726	      8.97917726	      1.00215920	      6.17384022	      2.01293282	      7.64640645	     -7.82238320	    -12.36216648	     19.60123409	     19.60123409	     17.79529258	     -9.68833097	     -1.24498133	    -10.40949113	      5.41208626	      1.98649849	      3.74047148	    -13.16897030	    -13.12137774	     29.79933448	     46.72176179	      0.00000000	      0.00000000	     20.05141042	    -17.60923543	     -2.04255583	     61.18357727	     46.67646383	      0.00000000	      0.00000000
